<svg width="253" height="253" viewBox="0 0 253 253" fill="none" xmlns="http://www.w3.org/2000/svg">
<path d="M2.18752 205.364L-0.0905762 207.645L8.64598 216.37L10.9241 214.088L2.18752 205.364Z" fill="#FACD49"/>
<path d="M-0.0962203 214.108L2.18506 216.386L10.9094 207.65L8.62815 205.372L-0.0962203 214.108Z" fill="#FACD49"/>
<path d="M2.21804 228.446L-0.0600586 230.727L8.67649 239.451L10.9546 237.17L2.21804 228.446Z" fill="#FACD49"/>
<path d="M-0.0779097 237.177L2.20337 239.456L10.9277 230.719L8.64645 228.441L-0.0779097 237.177Z" fill="#FACD49"/>
<path d="M2.22927 249.905L-0.0488281 252.186L8.68772 260.911L10.9658 258.629L2.22927 249.905Z" fill="#FACD49"/>
<path d="M-0.0527632 258.672L2.22852 260.95L10.9529 252.213L8.6716 249.935L-0.0527632 258.672Z" fill="#FACD49"/>
<path d="M2.15554 137.011L-0.122559 139.292L8.61399 148.017L10.8921 145.736L2.15554 137.011Z" fill="#FACD49"/>
<path d="M-0.14456 145.728L2.13672 148.006L10.8611 139.27L8.5798 136.992L-0.14456 145.728Z" fill="#FACD49"/>
<path d="M2.15578 160.081L-0.122314 162.362L8.61423 171.086L10.8923 168.805L2.15578 160.081Z" fill="#FACD49"/>
<path d="M-0.121123 168.828L2.16016 171.106L10.8845 162.369L8.60324 160.091L-0.121123 168.828Z" fill="#FACD49"/>
<path d="M2.17897 181.545L-0.0991211 183.826L8.63743 192.55L10.9155 190.269L2.17897 181.545Z" fill="#FACD49"/>
<path d="M-0.10916 190.291L2.17212 192.569L10.8965 183.833L8.6152 181.555L-0.10916 190.291Z" fill="#FACD49"/>
<path d="M2.1072 68.615L-0.170898 70.8962L8.56565 79.6206L10.8437 77.3393L2.1072 68.615Z" fill="#FACD49"/>
<path d="M-0.181669 77.365L2.09961 79.6431L10.824 70.9065L8.54268 68.6284L-0.181669 77.365Z" fill="#FACD49"/>
<path d="M2.10695 91.7265L-0.171143 94.0078L8.56541 102.732L10.8435 100.451L2.10695 91.7265Z" fill="#FACD49"/>
<path d="M-0.15164 100.446L2.12964 102.724L10.854 93.9878L8.57272 91.7097L-0.15164 100.446Z" fill="#FACD49"/>
<path d="M2.13039 113.191L-0.147705 115.472L8.58883 124.197L10.8669 121.915L2.13039 113.191Z" fill="#FACD49"/>
<path d="M-0.138701 121.91L2.14258 124.188L10.8669 115.451L8.58565 113.173L-0.138701 121.91Z" fill="#FACD49"/>
<path d="M2.04568 0.266812L-0.232422 2.5481L8.50412 11.2725L10.7822 8.99117L2.04568 0.266812Z" fill="#FACD49"/>
<path d="M-0.224155 8.99631L2.05713 11.2744L10.7815 2.53787L8.5002 0.259767L-0.224155 8.99631Z" fill="#FACD49"/>
<path d="M2.07668 23.3305L-0.201416 25.6118L8.53513 34.3362L10.8132 32.0549L2.07668 23.3305Z" fill="#FACD49"/>
<path d="M-0.206084 32.0654L2.0752 34.3435L10.7996 25.607L8.51827 23.3289L-0.206084 32.0654Z" fill="#FACD49"/>
<path d="M2.08205 44.7949L-0.196045 47.0762L8.5405 55.8005L10.8186 53.5192L2.08205 44.7949Z" fill="#FACD49"/>
<path d="M-0.1929 53.5469L2.08838 55.825L10.8127 47.0884L8.53146 44.8103L-0.1929 53.5469Z" fill="#FACD49"/>
<path d="M26.4614 205.363L24.1833 207.644L32.9199 216.368L35.198 214.087L26.4614 205.363Z" fill="#FACD49"/>
<path d="M24.1699 214.085L26.4512 216.363L35.1755 207.627L32.8942 205.349L24.1699 214.085Z" fill="#FACD49"/>
<path d="M49.4207 205.339L47.1426 207.62L55.8791 216.344L58.1572 214.063L49.4207 205.339Z" fill="#FACD49"/>
<path d="M47.1396 214.066L49.4209 216.344L58.1452 207.608L55.864 205.33L47.1396 214.066Z" fill="#FACD49"/>
<path d="M72.3487 205.32L70.0706 207.601L78.8071 216.326L81.0852 214.044L72.3487 205.32Z" fill="#FACD49"/>
<path d="M70.0962 214.06L72.3774 216.338L81.1018 207.602L78.8205 205.323L70.0962 214.06Z" fill="#FACD49"/>
<path d="M95.3069 205.325L93.0288 207.606L101.765 216.33L104.043 214.049L95.3069 205.325Z" fill="#FACD49"/>
<path d="M93.0041 214.041L95.2854 216.319L104.01 207.583L101.728 205.305L93.0041 214.041Z" fill="#FACD49"/>
<path d="M118.236 205.288L115.958 207.569L124.694 216.294L126.972 214.012L118.236 205.288Z" fill="#FACD49"/>
<path d="M115.962 214.035L118.243 216.313L126.967 207.576L124.686 205.298L115.962 214.035Z" fill="#FACD49"/>
<path d="M26.4929 228.409L24.2148 230.69L32.9514 239.414L35.2295 237.133L26.4929 228.409Z" fill="#FACD49"/>
<path d="M24.1884 237.172L26.4697 239.45L35.1941 230.713L32.9128 228.435L24.1884 237.172Z" fill="#FACD49"/>
<path d="M49.4204 228.407L47.1423 230.689L55.8789 239.413L58.157 237.132L49.4204 228.407Z" fill="#FACD49"/>
<path d="M47.1264 237.165L49.4077 239.443L58.1321 230.707L55.8508 228.429L47.1264 237.165Z" fill="#FACD49"/>
<path d="M72.3789 228.419L70.1008 230.701L78.8374 239.425L81.1155 237.144L72.3789 228.419Z" fill="#FACD49"/>
<path d="M70.0962 237.146L72.3774 239.425L81.1018 230.688L78.8205 228.41L70.0962 237.146Z" fill="#FACD49"/>
<path d="M95.3201 228.388L93.042 230.669L101.779 239.394L104.057 237.113L95.3201 228.388Z" fill="#FACD49"/>
<path d="M93.0224 237.11L95.3037 239.388L104.028 230.652L101.747 228.374L93.0224 237.11Z" fill="#FACD49"/>
<path d="M118.267 228.387L115.989 230.668L124.726 239.393L127.004 237.112L118.267 228.387Z" fill="#FACD49"/>
<path d="M115.962 237.103L118.243 239.382L126.967 230.645L124.686 228.367L115.962 237.103Z" fill="#FACD49"/>
<path d="M26.4981 249.891L24.22 252.172L32.9565 260.896L35.2346 258.615L26.4981 249.891Z" fill="#FACD49"/>
<path d="M24.2187 258.636L26.5 260.914L35.2244 252.177L32.9431 249.899L24.2187 258.636Z" fill="#FACD49"/>
<path d="M49.4441 249.89L47.166 252.171L55.9026 260.896L58.1807 258.614L49.4441 249.89Z" fill="#FACD49"/>
<path d="M47.1396 258.629L49.4209 260.907L58.1453 252.171L55.864 249.893L47.1396 258.629Z" fill="#FACD49"/>
<path d="M72.3848 249.884L70.1067 252.165L78.8432 260.889L81.1213 258.608L72.3848 249.884Z" fill="#FACD49"/>
<path d="M70.1089 258.61L72.3901 260.888L81.1145 252.152L78.8332 249.874L70.1089 258.61Z" fill="#FACD49"/>
<path d="M95.3311 249.865L93.053 252.146L101.79 260.871L104.068 258.59L95.3311 249.865Z" fill="#FACD49"/>
<path d="M93.0473 258.604L95.3286 260.883L104.053 252.146L101.772 249.868L93.0473 258.604Z" fill="#FACD49"/>
<path d="M118.272 249.852L115.994 252.133L124.73 260.857L127.009 258.576L118.272 249.852Z" fill="#FACD49"/>
<path d="M115.974 258.568L118.255 260.846L126.979 252.109L124.698 249.831L115.974 258.568Z" fill="#FACD49"/>
<path d="M26.4131 136.991L24.135 139.272L32.8716 147.997L35.1497 145.715L26.4131 136.991Z" fill="#FACD49"/>
<path d="M24.1406 145.721L26.4219 148L35.1462 139.263L32.865 136.985L24.1406 145.721Z" fill="#FACD49"/>
<path d="M49.3723 136.96L47.0942 139.241L55.8308 147.965L58.1089 145.684L49.3723 136.96Z" fill="#FACD49"/>
<path d="M47.0842 145.702L49.3655 147.98L58.0898 139.244L55.8085 136.966L47.0842 145.702Z" fill="#FACD49"/>
<path d="M72.3174 136.959L70.0393 139.24L78.7759 147.965L81.054 145.683L72.3174 136.959Z" fill="#FACD49"/>
<path d="M70.0224 145.697L72.3037 147.975L81.0281 139.238L78.7468 136.96L70.0224 145.697Z" fill="#FACD49"/>
<path d="M95.2461 136.923L92.968 139.204L101.705 147.928L103.983 145.647L95.2461 136.923Z" fill="#FACD49"/>
<path d="M92.9797 145.672L95.261 147.95L103.985 139.214L101.704 136.936L92.9797 145.672Z" fill="#FACD49"/>
<path d="M118.193 136.922L115.915 139.203L124.651 147.927L126.929 145.646L118.193 136.922Z" fill="#FACD49"/>
<path d="M115.919 145.666L118.201 147.944L126.925 139.208L124.644 136.93L115.919 145.666Z" fill="#FACD49"/>
<path d="M26.4434 160.072L24.1653 162.354L32.9018 171.078L35.1799 168.797L26.4434 160.072Z" fill="#FACD49"/>
<path d="M24.1579 168.791L26.4392 171.069L35.1636 162.332L32.8823 160.054L24.1579 168.791Z" fill="#FACD49"/>
<path d="M49.3843 160.041L47.1062 162.323L55.8427 171.047L58.1208 168.766L49.3843 160.041Z" fill="#FACD49"/>
<path d="M47.1015 168.771L49.3828 171.05L58.1072 162.313L55.8259 160.035L47.1015 168.771Z" fill="#FACD49"/>
<path d="M72.3306 160.023L70.0525 162.304L78.789 171.029L81.0671 168.747L72.3306 160.023Z" fill="#FACD49"/>
<path d="M70.0407 168.765L72.322 171.043L81.0464 162.307L78.7651 160.029L70.0407 168.765Z" fill="#FACD49"/>
<path d="M95.2769 160.022L92.9988 162.303L101.735 171.028L104.013 168.746L95.2769 160.022Z" fill="#FACD49"/>
<path d="M92.9802 168.759L95.2615 171.037L103.986 162.301L101.705 160.022L92.9802 168.759Z" fill="#FACD49"/>
<path d="M118.205 160.003L115.927 162.285L124.663 171.009L126.941 168.728L118.205 160.003Z" fill="#FACD49"/>
<path d="M115.936 168.752L118.218 171.031L126.942 162.294L124.661 160.016L115.936 168.752Z" fill="#FACD49"/>
<path d="M26.4485 181.554L24.1704 183.836L32.907 192.56L35.1851 190.279L26.4485 181.554Z" fill="#FACD49"/>
<path d="M24.1699 190.254L26.4512 192.532L35.1755 183.796L32.8943 181.518L24.1699 190.254Z" fill="#FACD49"/>
<path d="M49.395 181.519L47.1169 183.8L55.8535 192.524L58.1316 190.243L49.395 181.519Z" fill="#FACD49"/>
<path d="M47.1269 190.248L49.4082 192.526L58.1326 183.79L55.8513 181.511L47.1269 190.248Z" fill="#FACD49"/>
<path d="M72.3528 181.505L70.0747 183.786L78.8112 192.51L81.0893 190.229L72.3528 181.505Z" fill="#FACD49"/>
<path d="M70.0527 190.229L72.334 192.507L81.0583 183.771L78.7771 181.493L70.0527 190.229Z" fill="#FACD49"/>
<path d="M95.282 181.487L93.0039 183.768L101.74 192.492L104.019 190.211L95.282 181.487Z" fill="#FACD49"/>
<path d="M92.9922 190.223L95.2734 192.501L103.998 183.765L101.717 181.487L92.9922 190.223Z" fill="#FACD49"/>
<path d="M118.228 181.468L115.95 183.749L124.686 192.474L126.965 190.192L118.228 181.468Z" fill="#FACD49"/>
<path d="M115.949 190.217L118.23 192.495L126.954 183.758L124.673 181.48L115.949 190.217Z" fill="#FACD49"/>
<path d="M26.3823 68.6128L24.1042 70.894L32.8408 79.6184L35.1189 77.3371L26.3823 68.6128Z" fill="#FACD49"/>
<path d="M24.103 77.3406L26.3843 79.6187L35.1086 70.8821L32.8274 68.604L24.103 77.3406Z" fill="#FACD49"/>
<path d="M49.3111 68.612L47.033 70.8933L55.7695 79.6177L58.0476 77.3364L49.3111 68.612Z" fill="#FACD49"/>
<path d="M47.0239 77.3347L49.3052 79.6128L58.0295 70.8762L55.7483 68.5982L47.0239 77.3347Z" fill="#FACD49"/>
<path d="M72.2576 68.5932L69.9795 70.8745L78.716 79.5989L80.9941 77.3176L72.2576 68.5932Z" fill="#FACD49"/>
<path d="M69.9817 77.3281L72.2629 79.6062L80.9873 70.8697L78.706 68.5916L69.9817 77.3281Z" fill="#FACD49"/>
<path d="M95.1973 68.5622L92.9192 70.8435L101.656 79.5679L103.934 77.2866L95.1973 68.5622Z" fill="#FACD49"/>
<path d="M92.9067 77.3096L95.188 79.5876L103.912 70.8511L101.631 68.573L92.9067 77.3096Z" fill="#FACD49"/>
<path d="M118.157 68.5559L115.878 70.8372L124.615 79.5615L126.893 77.2802L118.157 68.5559Z" fill="#FACD49"/>
<path d="M115.858 77.2903L118.139 79.5684L126.864 70.8318L124.582 68.5537L115.858 77.2903Z" fill="#FACD49"/>
<path d="M26.3955 91.6943L24.1174 93.9756L32.854 102.7L35.1321 100.419L26.3955 91.6943Z" fill="#FACD49"/>
<path d="M24.103 100.427L26.3843 102.705L35.1086 93.9688L32.8274 91.6907L24.103 100.427Z" fill="#FACD49"/>
<path d="M49.3408 91.6755L47.0627 93.9568L55.7993 102.681L58.0774 100.4L49.3408 91.6755Z" fill="#FACD49"/>
<path d="M47.0595 100.421L49.3408 102.699L58.0652 93.9624L55.7839 91.6843L47.0595 100.421Z" fill="#FACD49"/>
<path d="M72.2693 91.6748L69.9912 93.9561L78.7278 102.68L81.0059 100.399L72.2693 91.6748Z" fill="#FACD49"/>
<path d="M69.9804 100.415L72.2617 102.693L80.9861 93.9563L78.7048 91.6782L69.9804 100.415Z" fill="#FACD49"/>
<path d="M95.2283 91.6257L92.9502 93.907L101.687 102.631L103.965 100.35L95.2283 91.6257Z" fill="#FACD49"/>
<path d="M92.9248 100.378L95.2061 102.656L103.93 93.9195L101.649 91.6414L92.9248 100.378Z" fill="#FACD49"/>
<path d="M118.157 91.6074L115.878 93.8887L124.615 102.613L126.893 100.332L118.157 91.6074Z" fill="#FACD49"/>
<path d="M115.882 100.372L118.164 102.65L126.888 93.9131L124.607 91.635L115.882 100.372Z" fill="#FACD49"/>
<path d="M26.4055 113.171L24.1274 115.452L32.864 124.177L35.1421 121.895L26.4055 113.171Z" fill="#FACD49"/>
<path d="M24.1279 121.904L26.4092 124.182L35.1335 115.445L32.8523 113.167L24.1279 121.904Z" fill="#FACD49"/>
<path d="M49.3465 113.14L47.0684 115.421L55.8049 124.146L58.083 121.864L49.3465 113.14Z" fill="#FACD49"/>
<path d="M47.0542 121.885L49.3354 124.163L58.0598 115.427L55.7785 113.148L47.0542 121.885Z" fill="#FACD49"/>
<path d="M72.293 113.122L70.0149 115.403L78.7514 124.127L81.0295 121.846L72.293 113.122Z" fill="#FACD49"/>
<path d="M69.9936 121.879L72.2749 124.157L80.9993 115.42L78.718 113.142L69.9936 121.879Z" fill="#FACD49"/>
<path d="M95.2215 113.103L92.9434 115.384L101.68 124.109L103.958 121.827L95.2215 113.103Z" fill="#FACD49"/>
<path d="M92.9682 121.855L95.2495 124.133L103.974 115.396L101.693 113.118L92.9682 121.855Z" fill="#FACD49"/>
<path d="M118.18 113.089L115.902 115.371L124.638 124.095L126.916 121.814L118.18 113.089Z" fill="#FACD49"/>
<path d="M115.894 121.835L118.176 124.114L126.9 115.377L124.619 113.099L115.894 121.835Z" fill="#FACD49"/>
<path d="M26.3211 0.246797L24.043 2.52808L32.7795 11.2524L35.0576 8.97115L26.3211 0.246797Z" fill="#FACD49"/>
<path d="M24.0425 8.99046L26.3237 11.2686L35.0481 2.53201L32.7668 0.253912L24.0425 8.99046Z" fill="#FACD49"/>
<path d="M49.2615 0.215791L46.9834 2.49707L55.7199 11.2214L57.998 8.94015L49.2615 0.215791Z" fill="#FACD49"/>
<path d="M46.9865 8.97142L49.2678 11.2495L57.9922 2.51296L55.7109 0.234869L46.9865 8.97142Z" fill="#FACD49"/>
<path d="M72.2207 0.209688L69.9426 2.49097L78.6792 11.2153L80.9573 8.93405L72.2207 0.209688Z" fill="#FACD49"/>
<path d="M69.938 8.95237L72.2192 11.2305L80.9436 2.49392L78.6623 0.215826L69.938 8.95237Z" fill="#FACD49"/>
<path d="M95.1663 0.208956L92.8882 2.49023L101.625 11.2146L103.903 8.93331L95.1663 0.208956Z" fill="#FACD49"/>
<path d="M92.8945 8.92845L95.1758 11.2065L103.9 2.47L101.619 0.1919L92.8945 8.92845Z" fill="#FACD49"/>
<path d="M118.095 0.190157L115.817 2.47144L124.553 11.1958L126.832 8.91451L118.095 0.190157Z" fill="#FACD49"/>
<path d="M115.834 8.9221L118.115 11.2002L126.84 2.46365L124.558 0.185553L115.834 8.9221Z" fill="#FACD49"/>
<path d="M26.3338 23.3108L24.0557 25.592L32.7922 34.3164L35.0703 32.0351L26.3338 23.3108Z" fill="#FACD49"/>
<path d="M24.0605 32.0588L26.3418 34.3369L35.0662 25.6004L32.7849 23.3223L24.0605 32.0588Z" fill="#FACD49"/>
<path d="M49.28 23.3098L47.002 25.5911L55.7385 34.3154L58.0166 32.0341L49.28 23.3098Z" fill="#FACD49"/>
<path d="M47.0178 32.053L49.2991 34.3311L58.0234 25.5945L55.7422 23.3164L47.0178 32.053Z" fill="#FACD49"/>
<path d="M72.2381 23.2788L69.96 25.5601L78.6965 34.2844L80.9746 32.0031L72.2381 23.2788Z" fill="#FACD49"/>
<path d="M69.9431 32.0339L72.2244 34.312L80.9487 25.5755L78.6674 23.2974L69.9431 32.0339Z" fill="#FACD49"/>
<path d="M95.1792 23.2724L92.9011 25.5537L101.638 34.2781L103.916 31.9968L95.1792 23.2724Z" fill="#FACD49"/>
<path d="M92.8945 32.0146L95.1758 34.2927L103.9 25.5562L101.619 23.2781L92.8945 32.0146Z" fill="#FACD49"/>
<path d="M118.125 23.2717L115.847 25.553L124.584 34.2773L126.862 31.9961L118.125 23.2717Z" fill="#FACD49"/>
<path d="M115.852 32.0088L118.133 34.2869L126.858 25.5503L124.576 23.2722L115.852 32.0088Z" fill="#FACD49"/>
<path d="M26.3574 44.7929L24.0793 47.0742L32.8159 55.7986L35.094 53.5173L26.3574 44.7929Z" fill="#FACD49"/>
<path d="M24.0727 53.5229L26.354 55.801L35.0784 47.0645L32.7971 44.7864L24.0727 53.5229Z" fill="#FACD49"/>
<path d="M49.303 44.7739L47.0249 47.0552L55.7615 55.7795L58.0395 53.4983L49.303 44.7739Z" fill="#FACD49"/>
<path d="M47.0298 53.5166L49.311 55.7947L58.0354 47.0581L55.7541 44.78L47.0298 53.5166Z" fill="#FACD49"/>
<path d="M72.2312 44.7553L69.9531 47.0366L78.6897 55.761L80.9678 53.4797L72.2312 44.7553Z" fill="#FACD49"/>
<path d="M69.9682 53.51L72.2495 55.7881L80.9739 47.0515L78.6926 44.7734L69.9682 53.51Z" fill="#FACD49"/>
<path d="M95.1895 44.7419L92.9114 47.0232L101.648 55.7476L103.926 53.4663L95.1895 44.7419Z" fill="#FACD49"/>
<path d="M92.8945 53.4909L95.1758 55.769L103.9 47.0325L101.619 44.7544L92.8945 53.4909Z" fill="#FACD49"/>
<path d="M118.131 44.7358L115.853 47.0171L124.589 55.7414L126.867 53.4602L118.131 44.7358Z" fill="#FACD49"/>
<path d="M115.864 53.4546L118.146 55.7327L126.87 46.9961L124.589 44.718L115.864 53.4546Z" fill="#FACD49"/>
<path d="M138.906 205.279L136.628 207.561L145.364 216.285L147.643 214.004L138.906 205.279Z" fill="#FACD49"/>
<path d="M136.624 214.019L138.905 216.297L147.63 207.56L145.348 205.282L136.624 214.019Z" fill="#FACD49"/>
<path d="M161.852 205.261L159.574 207.542L168.311 216.267L170.589 213.985L161.852 205.261Z" fill="#FACD49"/>
<path d="M159.581 214.012L161.863 216.29L170.587 207.554L168.306 205.276L159.581 214.012Z" fill="#FACD49"/>
<path d="M184.824 205.26L182.546 207.541L191.282 216.266L193.56 213.984L184.824 205.26Z" fill="#FACD49"/>
<path d="M182.52 213.981L184.801 216.259L193.526 207.522L191.244 205.244L182.52 213.981Z" fill="#FACD49"/>
<path d="M207.751 205.241L205.473 207.523L214.21 216.247L216.488 213.966L207.751 205.241Z" fill="#FACD49"/>
<path d="M205.458 213.975L207.74 216.253L216.464 207.516L214.183 205.238L205.458 213.975Z" fill="#FACD49"/>
<path d="M230.698 205.205L228.419 207.486L237.156 216.211L239.434 213.929L230.698 205.205Z" fill="#FACD49"/>
<path d="M228.434 213.968L230.715 216.246L239.439 207.51L237.158 205.231L228.434 213.968Z" fill="#FACD49"/>
<path d="M138.937 228.361L136.658 230.642L145.395 239.367L147.673 237.085L138.937 228.361Z" fill="#FACD49"/>
<path d="M136.642 237.105L138.924 239.383L147.648 230.647L145.367 228.368L136.642 237.105Z" fill="#FACD49"/>
<path d="M161.864 228.342L159.586 230.624L168.322 239.348L170.601 237.067L161.864 228.342Z" fill="#FACD49"/>
<path d="M159.58 237.099L161.862 239.377L170.586 230.64L168.305 228.362L159.58 237.099Z" fill="#FACD49"/>
<path d="M184.823 228.311L182.545 230.593L191.282 239.317L193.56 237.036L184.823 228.311Z" fill="#FACD49"/>
<path d="M182.525 237.062L184.806 239.34L193.531 230.604L191.249 228.325L182.525 237.062Z" fill="#FACD49"/>
<path d="M207.781 228.305L205.503 230.586L214.239 239.311L216.518 237.029L207.781 228.305Z" fill="#FACD49"/>
<path d="M205.494 237.043L207.775 239.321L216.5 230.584L214.218 228.306L205.494 237.043Z" fill="#FACD49"/>
<path d="M230.71 228.304L228.432 230.586L237.168 239.31L239.446 237.029L230.71 228.304Z" fill="#FACD49"/>
<path d="M228.433 237.037L230.714 239.315L239.438 230.579L237.157 228.301L228.433 237.037Z" fill="#FACD49"/>
<path d="M138.941 249.843L136.663 252.125L145.4 260.849L147.678 258.568L138.941 249.843Z" fill="#FACD49"/>
<path d="M136.654 258.569L138.936 260.847L147.66 252.111L145.379 249.833L136.654 258.569Z" fill="#FACD49"/>
<path d="M161.888 249.807L159.61 252.088L168.346 260.812L170.624 258.531L161.888 249.807Z" fill="#FACD49"/>
<path d="M159.594 258.562L161.875 260.841L170.599 252.104L168.318 249.826L159.594 258.562Z" fill="#FACD49"/>
<path d="M184.834 249.77L182.556 252.052L191.292 260.776L193.57 258.495L184.834 249.77Z" fill="#FACD49"/>
<path d="M182.568 258.539L184.85 260.817L193.574 252.08L191.293 249.802L182.568 258.539Z" fill="#FACD49"/>
<path d="M207.774 249.757L205.496 252.039L214.233 260.763L216.511 258.482L207.774 249.757Z" fill="#FACD49"/>
<path d="M205.494 258.52L207.775 260.798L216.5 252.061L214.218 249.783L205.494 258.52Z" fill="#FACD49"/>
<path d="M230.733 249.769L228.455 252.05L237.191 260.775L239.469 258.493L230.733 249.769Z" fill="#FACD49"/>
<path d="M228.428 258.501L230.709 260.779L239.433 252.043L237.152 249.765L228.428 258.501Z" fill="#FACD49"/>
<path d="M138.875 136.883L136.597 139.165L145.333 147.889L147.612 145.608L138.875 136.883Z" fill="#FACD49"/>
<path d="M136.587 145.655L138.868 147.933L147.593 139.197L145.311 136.919L136.587 145.655Z" fill="#FACD49"/>
<path d="M161.816 136.895L159.538 139.176L168.275 147.901L170.553 145.619L161.816 136.895Z" fill="#FACD49"/>
<path d="M159.539 145.619L161.821 147.897L170.545 139.16L168.264 136.882L159.539 145.619Z" fill="#FACD49"/>
<path d="M184.762 136.876L182.484 139.158L191.221 147.882L193.499 145.601L184.762 136.876Z" fill="#FACD49"/>
<path d="M182.459 145.63L184.741 147.908L193.465 139.172L191.184 136.894L182.459 145.63Z" fill="#FACD49"/>
<path d="M207.69 136.858L205.412 139.139L214.148 147.864L216.426 145.582L207.69 136.858Z" fill="#FACD49"/>
<path d="M205.416 145.606L207.697 147.884L216.421 139.147L214.14 136.869L205.416 145.606Z" fill="#FACD49"/>
<path d="M230.649 136.844L228.371 139.125L237.108 147.85L239.386 145.569L230.649 136.844Z" fill="#FACD49"/>
<path d="M228.361 145.587L230.642 147.865L239.366 139.129L237.085 136.851L228.361 145.587Z" fill="#FACD49"/>
<path d="M138.875 159.978L136.597 162.259L145.334 170.983L147.612 168.702L138.875 159.978Z" fill="#FACD49"/>
<path d="M136.6 168.737L138.881 171.015L147.606 162.278L145.324 160L136.6 168.737Z" fill="#FACD49"/>
<path d="M161.833 159.964L159.555 162.245L168.292 170.969L170.57 168.688L161.833 159.964Z" fill="#FACD49"/>
<path d="M159.543 168.718L161.825 170.996L170.549 162.259L168.268 159.981L159.543 168.718Z" fill="#FACD49"/>
<path d="M184.774 159.958L182.496 162.239L191.232 170.964L193.51 168.682L184.774 159.958Z" fill="#FACD49"/>
<path d="M182.495 168.699L184.776 170.977L193.5 162.241L191.219 159.962L182.495 168.699Z" fill="#FACD49"/>
<path d="M207.72 159.939L205.442 162.221L214.179 170.945L216.457 168.664L207.72 159.939Z" fill="#FACD49"/>
<path d="M205.434 168.693L207.715 170.971L216.439 162.234L214.158 159.956L205.434 168.693Z" fill="#FACD49"/>
<path d="M230.662 159.908L228.384 162.189L237.121 170.914L239.399 168.633L230.662 159.908Z" fill="#FACD49"/>
<path d="M228.379 168.656L230.66 170.934L239.384 162.198L237.103 159.919L228.379 168.656Z" fill="#FACD49"/>
<path d="M138.898 181.459L136.62 183.741L145.356 192.465L147.635 190.184L138.898 181.459Z" fill="#FACD49"/>
<path d="M136.594 190.2L138.876 192.479L147.6 183.742L145.319 181.464L136.594 190.2Z" fill="#FACD49"/>
<path d="M161.839 181.428L159.561 183.71L168.298 192.434L170.576 190.153L161.839 181.428Z" fill="#FACD49"/>
<path d="M159.538 190.182L161.819 192.46L170.544 183.723L168.262 181.445L159.538 190.182Z" fill="#FACD49"/>
<path d="M184.798 181.423L182.52 183.704L191.257 192.428L193.535 190.147L184.798 181.423Z" fill="#FACD49"/>
<path d="M182.508 190.163L184.789 192.441L193.513 183.705L191.232 181.427L182.508 190.163Z" fill="#FACD49"/>
<path d="M207.726 181.404L205.448 183.685L214.184 192.409L216.462 190.128L207.726 181.404Z" fill="#FACD49"/>
<path d="M205.446 190.157L207.728 192.435L216.452 183.698L214.171 181.42L205.446 190.157Z" fill="#FACD49"/>
<path d="M230.673 181.385L228.395 183.667L237.131 192.391L239.409 190.11L230.673 181.385Z" fill="#FACD49"/>
<path d="M228.404 190.133L230.685 192.411L239.409 183.674L237.128 181.396L228.404 190.133Z" fill="#FACD49"/>
<path d="M138.827 68.5481L136.549 70.8293L145.285 79.5537L147.563 77.2724L138.827 68.5481Z" fill="#FACD49"/>
<path d="M136.54 77.2746L138.821 79.5527L147.545 70.8162L145.264 68.5381L136.54 77.2746Z" fill="#FACD49"/>
<path d="M161.754 68.5117L159.476 70.793L168.213 79.5173L170.491 77.236L161.754 68.5117Z" fill="#FACD49"/>
<path d="M159.478 77.2685L161.76 79.5466L170.484 70.8101L168.203 68.532L159.478 77.2685Z" fill="#FACD49"/>
<path d="M184.714 68.4983L182.436 70.7795L191.172 79.5039L193.45 77.2226L184.714 68.4983Z" fill="#FACD49"/>
<path d="M182.44 77.2495L184.722 79.5276L193.446 70.791L191.165 68.513L182.44 77.2495Z" fill="#FACD49"/>
<path d="M207.659 68.4797L205.381 70.761L214.118 79.4853L216.396 77.2041L207.659 68.4797Z" fill="#FACD49"/>
<path d="M205.379 77.2432L207.66 79.5212L216.385 70.7847L214.103 68.5066L205.379 77.2432Z" fill="#FACD49"/>
<path d="M230.605 68.479L228.327 70.7603L237.064 79.4846L239.342 77.2033L230.605 68.479Z" fill="#FACD49"/>
<path d="M228.3 77.2373L230.581 79.5154L239.305 70.7788L237.024 68.5007L228.3 77.2373Z" fill="#FACD49"/>
<path d="M138.839 91.6118L136.561 93.8931L145.298 102.617L147.576 100.336L138.839 91.6118Z" fill="#FACD49"/>
<path d="M136.557 100.361L138.839 102.639L147.563 93.9029L145.282 91.6248L136.557 100.361Z" fill="#FACD49"/>
<path d="M161.785 91.5932L159.507 93.8745L168.243 102.599L170.521 100.318L161.785 91.5932Z" fill="#FACD49"/>
<path d="M159.514 100.337L161.795 102.615L170.52 93.8787L168.238 91.6006L159.514 100.337Z" fill="#FACD49"/>
<path d="M184.731 91.5925L182.453 93.8738L191.19 102.598L193.468 100.317L184.731 91.5925Z" fill="#FACD49"/>
<path d="M182.435 100.331L184.717 102.609L193.441 93.8728L191.16 91.5947L182.435 100.331Z" fill="#FACD49"/>
<path d="M207.672 91.5612L205.394 93.8425L214.131 102.567L216.409 100.286L207.672 91.5612Z" fill="#FACD49"/>
<path d="M205.379 100.312L207.66 102.59L216.385 93.8535L214.103 91.5754L205.379 100.312Z" fill="#FACD49"/>
<path d="M230.618 91.5424L228.34 93.8237L237.077 102.548L239.355 100.267L230.618 91.5424Z" fill="#FACD49"/>
<path d="M228.335 100.305L230.617 102.583L239.341 93.847L237.06 91.5688L228.335 100.305Z" fill="#FACD49"/>
<path d="M138.862 113.076L136.584 115.358L145.32 124.082L147.598 121.801L138.862 113.076Z" fill="#FACD49"/>
<path d="M136.588 121.808L138.869 124.086L147.593 115.349L145.312 113.071L136.588 121.808Z" fill="#FACD49"/>
<path d="M161.809 113.075L159.531 115.357L168.267 124.081L170.545 121.8L161.809 113.075Z" fill="#FACD49"/>
<path d="M159.527 121.801L161.808 124.079L170.532 115.343L168.251 113.065L159.527 121.801Z" fill="#FACD49"/>
<path d="M184.736 113.074L182.458 115.356L191.195 124.08L193.473 121.799L184.736 113.074Z" fill="#FACD49"/>
<path d="M182.447 121.813L184.729 124.091L193.453 115.354L191.172 113.076L182.447 121.813Z" fill="#FACD49"/>
<path d="M207.695 113.026L205.417 115.307L214.154 124.031L216.432 121.75L207.695 113.026Z" fill="#FACD49"/>
<path d="M205.392 121.776L207.673 124.054L216.397 115.318L214.116 113.04L205.392 121.776Z" fill="#FACD49"/>
<path d="M230.624 113.025L228.346 115.306L237.082 124.031L239.361 121.749L230.624 113.025Z" fill="#FACD49"/>
<path d="M228.349 121.77L230.63 124.048L239.355 115.311L237.073 113.033L228.349 121.77Z" fill="#FACD49"/>
<path d="M138.783 0.181866L136.505 2.46313L145.242 11.1875L147.52 8.90622L138.783 0.181866Z" fill="#FACD49"/>
<path d="M136.497 8.92357L138.778 11.2017L147.502 2.46511L145.221 0.187027L136.497 8.92357Z" fill="#FACD49"/>
<path d="M161.724 0.150841L159.446 2.43213L168.182 11.1565L170.46 8.8752L161.724 0.150841Z" fill="#FACD49"/>
<path d="M159.441 8.88742L161.722 11.1655L170.447 2.42898L168.165 0.150875L159.441 8.88742Z" fill="#FACD49"/>
<path d="M184.652 0.132305L182.374 2.41357L191.111 11.1379L193.389 8.85666L184.652 0.132305Z" fill="#FACD49"/>
<path d="M182.38 8.88109L184.661 11.1592L193.385 2.42263L191.104 0.144546L182.38 8.88109Z" fill="#FACD49"/>
<path d="M207.598 0.11375L205.32 2.39502L214.057 11.1194L216.335 8.83811L207.598 0.11375Z" fill="#FACD49"/>
<path d="M205.337 8.87499L207.618 11.1531L216.343 2.41653L214.061 0.138443L205.337 8.87499Z" fill="#FACD49"/>
<path d="M230.57 0.112755L228.292 2.39404L237.028 11.1184L239.306 8.83711L230.57 0.112755Z" fill="#FACD49"/>
<path d="M228.294 8.82565L230.575 11.1038L239.299 2.36721L237.018 0.0891079L228.294 8.82565Z" fill="#FACD49"/>
<path d="M138.796 23.2458L136.518 25.5271L145.254 34.2515L147.532 31.9702L138.796 23.2458Z" fill="#FACD49"/>
<path d="M136.515 31.9929L138.796 34.271L147.521 25.5344L145.239 23.2563L136.515 31.9929Z" fill="#FACD49"/>
<path d="M161.754 23.2324L159.476 25.5137L168.213 34.238L170.491 31.9568L161.754 23.2324Z" fill="#FACD49"/>
<path d="M159.441 31.9736L161.722 34.2517L170.447 25.5152L168.165 23.2371L159.441 31.9736Z" fill="#FACD49"/>
<path d="M184.665 23.196L182.387 25.4773L191.124 34.2017L193.402 31.9204L184.665 23.196Z" fill="#FACD49"/>
<path d="M182.399 31.9675L184.68 34.2456L193.404 25.5091L191.123 23.231L182.399 31.9675Z" fill="#FACD49"/>
<path d="M207.611 23.1953L205.333 25.4766L214.07 34.2009L216.348 31.9196L207.611 23.1953Z" fill="#FACD49"/>
<path d="M205.355 31.9436L207.636 34.2217L216.361 25.4851L214.08 23.207L205.355 31.9436Z" fill="#FACD49"/>
<path d="M230.556 23.1943L228.278 25.4756L237.015 34.1999L239.293 31.9187L230.556 23.1943Z" fill="#FACD49"/>
<path d="M228.275 31.955L230.557 34.2332L239.281 25.4966L237 23.2185L228.275 31.955Z" fill="#FACD49"/>
<path d="M138.801 44.7099L136.523 46.9912L145.259 55.7156L147.538 53.4343L138.801 44.7099Z" fill="#FACD49"/>
<path d="M136.528 53.4563L138.809 55.7344L147.533 46.9978L145.252 44.7197L136.528 53.4563Z" fill="#FACD49"/>
<path d="M161.747 44.7092L159.469 46.9905L168.206 55.7148L170.484 53.4336L161.747 44.7092Z" fill="#FACD49"/>
<path d="M159.466 53.4502L161.748 55.7283L170.472 46.9917L168.191 44.7136L159.466 53.4502Z" fill="#FACD49"/>
<path d="M184.689 44.6601L182.41 46.9414L191.147 55.6658L193.425 53.3845L184.689 44.6601Z" fill="#FACD49"/>
<path d="M182.429 53.4135L184.71 55.6917L193.435 46.9551L191.153 44.677L182.429 53.4135Z" fill="#FACD49"/>
<path d="M207.635 44.6599L205.356 46.9412L214.093 55.6655L216.371 53.3843L207.635 44.6599Z" fill="#FACD49"/>
<path d="M205.349 53.4077L207.63 55.6858L216.355 46.9492L214.073 44.6712L205.349 53.4077Z" fill="#FACD49"/>
<path d="M230.58 44.6589L228.302 46.9402L237.039 55.6645L239.317 53.3833L230.58 44.6589Z" fill="#FACD49"/>
<path d="M228.288 53.4192L230.569 55.6973L239.294 46.9607L237.012 44.6826L228.288 53.4192Z" fill="#FACD49"/>
<path d="M254.984 205.208L252.706 207.49L261.443 216.214L263.721 213.933L254.984 205.208Z" fill="#FACD49"/>
<path d="M252.687 213.932L254.968 216.21L263.692 207.474L261.411 205.196L252.687 213.932Z" fill="#FACD49"/>
<path d="M254.985 228.285L252.707 230.566L261.444 239.291L263.722 237.009L254.985 228.285Z" fill="#FACD49"/>
<path d="M252.7 237.031L254.981 239.309L263.705 230.573L261.424 228.294L252.7 237.031Z" fill="#FACD49"/>
<path d="M254.99 249.749L252.712 252.031L261.449 260.755L263.727 258.474L254.99 249.749Z" fill="#FACD49"/>
<path d="M252.713 258.495L254.994 260.773L263.718 252.036L261.437 249.758L252.713 258.495Z" fill="#FACD49"/>
<path d="M254.923 136.825L252.645 139.106L261.381 147.83L263.659 145.549L254.923 136.825Z" fill="#FACD49"/>
<path d="M252.626 145.581L254.907 147.859L263.632 139.123L261.351 136.844L252.626 145.581Z" fill="#FACD49"/>
<path d="M254.936 159.906L252.658 162.188L261.395 170.912L263.673 168.631L254.936 159.906Z" fill="#FACD49"/>
<path d="M252.663 168.65L254.944 170.928L263.668 162.192L261.387 159.914L252.663 168.65Z" fill="#FACD49"/>
<path d="M254.959 181.371L252.681 183.652L261.418 192.376L263.696 190.095L254.959 181.371Z" fill="#FACD49"/>
<path d="M252.675 190.114L254.956 192.392L263.68 183.656L261.399 181.378L252.675 190.114Z" fill="#FACD49"/>
<path d="M254.863 68.4587L252.584 70.74L261.321 79.4643L263.599 77.1831L254.863 68.4587Z" fill="#FACD49"/>
<path d="M252.585 77.2126L254.866 79.4907L263.591 70.7542L261.309 68.4761L252.585 77.2126Z" fill="#FACD49"/>
<path d="M254.875 91.5403L252.596 93.8215L261.333 102.546L263.611 100.265L254.875 91.5403Z" fill="#FACD49"/>
<path d="M252.584 100.299L254.865 102.577L263.59 93.8408L261.308 91.5628L252.584 100.299Z" fill="#FACD49"/>
<path d="M254.899 113.005L252.621 115.286L261.357 124.01L263.636 121.729L254.899 113.005Z" fill="#FACD49"/>
<path d="M252.597 121.763L254.878 124.042L263.603 115.305L261.321 113.027L252.597 121.763Z" fill="#FACD49"/>
<path d="M254.826 0.0929983L252.548 2.37427L261.285 11.0986L263.563 8.81736L254.826 0.0929983Z" fill="#FACD49"/>
<path d="M252.542 8.83739L254.823 11.1155L263.547 2.37893L261.266 0.100846L252.542 8.83739Z" fill="#FACD49"/>
<path d="M254.857 23.1745L252.579 25.4558L261.316 34.1802L263.594 31.8989L254.857 23.1745Z" fill="#FACD49"/>
<path d="M252.56 31.906L254.841 34.1841L263.565 25.4475L261.284 23.1694L252.56 31.906Z" fill="#FACD49"/>
<path d="M254.862 44.6391L252.584 46.9204L261.321 55.6448L263.599 53.3635L254.862 44.6391Z" fill="#FACD49"/>
<path d="M252.572 53.3701L254.853 55.6482L263.577 46.9116L261.296 44.6335L252.572 53.3701Z" fill="#FACD49"/>
</svg>
